<mxfile host="app.diagrams.net" agent="Mozilla/5.0 (Windows NT 10.0; Win64; x64) AppleWebKit/537.36 (KHTML, like Gecko) Chrome/138.0.0.0 Safari/537.36" version="28.0.7">
  <diagram name="Page-1" id="RwIAySU6jZXq3iFfo7sS">
    <mxGraphModel dx="2015" dy="648" grid="1" gridSize="10" guides="1" tooltips="1" connect="1" arrows="1" fold="1" page="1" pageScale="1" pageWidth="827" pageHeight="1169" math="0" shadow="0">
      <root>
        <mxCell id="0" />
        <mxCell id="1" parent="0" />
        <mxCell id="bao-scZ2mfOTdxJ5jmmJ-70" value="" style="edgeStyle=orthogonalEdgeStyle;rounded=0;orthogonalLoop=1;jettySize=auto;html=1;entryX=0.5;entryY=1;entryDx=0;entryDy=0;entryPerimeter=0;" edge="1" parent="1" source="bao-scZ2mfOTdxJ5jmmJ-5" target="bao-scZ2mfOTdxJ5jmmJ-21">
          <mxGeometry relative="1" as="geometry" />
        </mxCell>
        <mxCell id="bao-scZ2mfOTdxJ5jmmJ-5" value="card" style="swimlane;fontStyle=0;childLayout=stackLayout;horizontal=1;startSize=26;fillColor=none;horizontalStack=0;resizeParent=1;resizeParentMax=0;resizeLast=0;collapsible=1;marginBottom=0;whiteSpace=wrap;html=1;" vertex="1" parent="1">
          <mxGeometry x="-100" y="430" width="140" height="260" as="geometry" />
        </mxCell>
        <mxCell id="bao-scZ2mfOTdxJ5jmmJ-6" value="id: INT PK" style="text;strokeColor=none;fillColor=none;align=left;verticalAlign=top;spacingLeft=4;spacingRight=4;overflow=hidden;rotatable=0;points=[[0,0.5],[1,0.5]];portConstraint=eastwest;whiteSpace=wrap;html=1;" vertex="1" parent="bao-scZ2mfOTdxJ5jmmJ-5">
          <mxGeometry y="26" width="140" height="26" as="geometry" />
        </mxCell>
        <mxCell id="bao-scZ2mfOTdxJ5jmmJ-35" value="title: STRING" style="text;strokeColor=none;fillColor=none;align=left;verticalAlign=top;spacingLeft=4;spacingRight=4;overflow=hidden;rotatable=0;points=[[0,0.5],[1,0.5]];portConstraint=eastwest;whiteSpace=wrap;html=1;" vertex="1" parent="bao-scZ2mfOTdxJ5jmmJ-5">
          <mxGeometry y="52" width="140" height="26" as="geometry" />
        </mxCell>
        <mxCell id="bao-scZ2mfOTdxJ5jmmJ-8" value="number: INT" style="text;strokeColor=none;fillColor=none;align=left;verticalAlign=top;spacingLeft=4;spacingRight=4;overflow=hidden;rotatable=0;points=[[0,0.5],[1,0.5]];portConstraint=eastwest;whiteSpace=wrap;html=1;" vertex="1" parent="bao-scZ2mfOTdxJ5jmmJ-5">
          <mxGeometry y="78" width="140" height="26" as="geometry" />
        </mxCell>
        <mxCell id="bao-scZ2mfOTdxJ5jmmJ-13" value="winner_effect: STRING" style="text;strokeColor=none;fillColor=none;align=left;verticalAlign=top;spacingLeft=4;spacingRight=4;overflow=hidden;rotatable=0;points=[[0,0.5],[1,0.5]];portConstraint=eastwest;whiteSpace=wrap;html=1;" vertex="1" parent="bao-scZ2mfOTdxJ5jmmJ-5">
          <mxGeometry y="104" width="140" height="26" as="geometry" />
        </mxCell>
        <mxCell id="bao-scZ2mfOTdxJ5jmmJ-14" value="looser_effect: STRING" style="text;strokeColor=none;fillColor=none;align=left;verticalAlign=top;spacingLeft=4;spacingRight=4;overflow=hidden;rotatable=0;points=[[0,0.5],[1,0.5]];portConstraint=eastwest;whiteSpace=wrap;html=1;" vertex="1" parent="bao-scZ2mfOTdxJ5jmmJ-5">
          <mxGeometry y="130" width="140" height="26" as="geometry" />
        </mxCell>
        <mxCell id="bao-scZ2mfOTdxJ5jmmJ-15" value="special_effect: STRING" style="text;strokeColor=none;fillColor=none;align=left;verticalAlign=top;spacingLeft=4;spacingRight=4;overflow=hidden;rotatable=0;points=[[0,0.5],[1,0.5]];portConstraint=eastwest;whiteSpace=wrap;html=1;" vertex="1" parent="bao-scZ2mfOTdxJ5jmmJ-5">
          <mxGeometry y="156" width="140" height="26" as="geometry" />
        </mxCell>
        <mxCell id="bao-scZ2mfOTdxJ5jmmJ-16" value="rule: STRING" style="text;strokeColor=none;fillColor=none;align=left;verticalAlign=top;spacingLeft=4;spacingRight=4;overflow=hidden;rotatable=0;points=[[0,0.5],[1,0.5]];portConstraint=eastwest;whiteSpace=wrap;html=1;" vertex="1" parent="bao-scZ2mfOTdxJ5jmmJ-5">
          <mxGeometry y="182" width="140" height="26" as="geometry" />
        </mxCell>
        <mxCell id="bao-scZ2mfOTdxJ5jmmJ-17" value="combo: STRING" style="text;strokeColor=none;fillColor=none;align=left;verticalAlign=top;spacingLeft=4;spacingRight=4;overflow=hidden;rotatable=0;points=[[0,0.5],[1,0.5]];portConstraint=eastwest;whiteSpace=wrap;html=1;" vertex="1" parent="bao-scZ2mfOTdxJ5jmmJ-5">
          <mxGeometry y="208" width="140" height="26" as="geometry" />
        </mxCell>
        <mxCell id="bao-scZ2mfOTdxJ5jmmJ-18" value="citation: STRING" style="text;strokeColor=none;fillColor=none;align=left;verticalAlign=top;spacingLeft=4;spacingRight=4;overflow=hidden;rotatable=0;points=[[0,0.5],[1,0.5]];portConstraint=eastwest;whiteSpace=wrap;html=1;" vertex="1" parent="bao-scZ2mfOTdxJ5jmmJ-5">
          <mxGeometry y="234" width="140" height="26" as="geometry" />
        </mxCell>
        <mxCell id="bao-scZ2mfOTdxJ5jmmJ-19" value="artist" style="swimlane;fontStyle=0;childLayout=stackLayout;horizontal=1;startSize=26;fillColor=none;horizontalStack=0;resizeParent=1;resizeParentMax=0;resizeLast=0;collapsible=1;marginBottom=0;whiteSpace=wrap;html=1;" vertex="1" parent="1">
          <mxGeometry x="-100" y="260" width="140" height="78" as="geometry" />
        </mxCell>
        <mxCell id="bao-scZ2mfOTdxJ5jmmJ-20" value="id: INT PK" style="text;strokeColor=none;fillColor=none;align=left;verticalAlign=top;spacingLeft=4;spacingRight=4;overflow=hidden;rotatable=0;points=[[0,0.5],[1,0.5]];portConstraint=eastwest;whiteSpace=wrap;html=1;" vertex="1" parent="bao-scZ2mfOTdxJ5jmmJ-19">
          <mxGeometry y="26" width="140" height="26" as="geometry" />
        </mxCell>
        <mxCell id="bao-scZ2mfOTdxJ5jmmJ-21" value="name: STRING" style="text;strokeColor=none;fillColor=none;align=left;verticalAlign=top;spacingLeft=4;spacingRight=4;overflow=hidden;rotatable=0;points=[[0,0.5],[1,0.5]];portConstraint=eastwest;whiteSpace=wrap;html=1;" vertex="1" parent="bao-scZ2mfOTdxJ5jmmJ-19">
          <mxGeometry y="52" width="140" height="26" as="geometry" />
        </mxCell>
        <mxCell id="bao-scZ2mfOTdxJ5jmmJ-37" value="artist_id" style="text;html=1;align=center;verticalAlign=middle;resizable=0;points=[];autosize=1;strokeColor=none;fillColor=none;" vertex="1" parent="1">
          <mxGeometry x="-30" y="370" width="70" height="30" as="geometry" />
        </mxCell>
        <mxCell id="bao-scZ2mfOTdxJ5jmmJ-38" value="season" style="swimlane;fontStyle=0;childLayout=stackLayout;horizontal=1;startSize=26;fillColor=none;horizontalStack=0;resizeParent=1;resizeParentMax=0;resizeLast=0;collapsible=1;marginBottom=0;whiteSpace=wrap;html=1;" vertex="1" parent="1">
          <mxGeometry x="240" y="330" width="140" height="78" as="geometry" />
        </mxCell>
        <mxCell id="bao-scZ2mfOTdxJ5jmmJ-39" value="id: INT PK" style="text;strokeColor=none;fillColor=none;align=left;verticalAlign=top;spacingLeft=4;spacingRight=4;overflow=hidden;rotatable=0;points=[[0,0.5],[1,0.5]];portConstraint=eastwest;whiteSpace=wrap;html=1;" vertex="1" parent="bao-scZ2mfOTdxJ5jmmJ-38">
          <mxGeometry y="26" width="140" height="26" as="geometry" />
        </mxCell>
        <mxCell id="bao-scZ2mfOTdxJ5jmmJ-40" value="name: STRING" style="text;strokeColor=none;fillColor=none;align=left;verticalAlign=top;spacingLeft=4;spacingRight=4;overflow=hidden;rotatable=0;points=[[0,0.5],[1,0.5]];portConstraint=eastwest;whiteSpace=wrap;html=1;" vertex="1" parent="bao-scZ2mfOTdxJ5jmmJ-38">
          <mxGeometry y="52" width="140" height="26" as="geometry" />
        </mxCell>
        <mxCell id="bao-scZ2mfOTdxJ5jmmJ-41" value="" style="edgeStyle=orthogonalEdgeStyle;rounded=0;orthogonalLoop=1;jettySize=auto;html=1;entryX=0;entryY=0.25;entryDx=0;entryDy=0;exitX=1;exitY=0.5;exitDx=0;exitDy=0;" edge="1" parent="1" source="bao-scZ2mfOTdxJ5jmmJ-8" target="bao-scZ2mfOTdxJ5jmmJ-38">
          <mxGeometry relative="1" as="geometry">
            <mxPoint x="-180" y="437" as="sourcePoint" />
            <mxPoint x="20" y="463" as="targetPoint" />
          </mxGeometry>
        </mxCell>
        <mxCell id="bao-scZ2mfOTdxJ5jmmJ-43" value="season_id" style="text;html=1;align=center;verticalAlign=middle;resizable=0;points=[];autosize=1;strokeColor=none;fillColor=none;" vertex="1" parent="1">
          <mxGeometry x="145" y="360" width="80" height="30" as="geometry" />
        </mxCell>
        <mxCell id="bao-scZ2mfOTdxJ5jmmJ-44" value="character" style="swimlane;fontStyle=0;childLayout=stackLayout;horizontal=1;startSize=26;fillColor=none;horizontalStack=0;resizeParent=1;resizeParentMax=0;resizeLast=0;collapsible=1;marginBottom=0;whiteSpace=wrap;html=1;" vertex="1" parent="1">
          <mxGeometry x="280" y="500" width="140" height="78" as="geometry" />
        </mxCell>
        <mxCell id="bao-scZ2mfOTdxJ5jmmJ-45" value="id: INT PK" style="text;strokeColor=none;fillColor=none;align=left;verticalAlign=top;spacingLeft=4;spacingRight=4;overflow=hidden;rotatable=0;points=[[0,0.5],[1,0.5]];portConstraint=eastwest;whiteSpace=wrap;html=1;" vertex="1" parent="bao-scZ2mfOTdxJ5jmmJ-44">
          <mxGeometry y="26" width="140" height="26" as="geometry" />
        </mxCell>
        <mxCell id="bao-scZ2mfOTdxJ5jmmJ-46" value="name: STRING" style="text;strokeColor=none;fillColor=none;align=left;verticalAlign=top;spacingLeft=4;spacingRight=4;overflow=hidden;rotatable=0;points=[[0,0.5],[1,0.5]];portConstraint=eastwest;whiteSpace=wrap;html=1;" vertex="1" parent="bao-scZ2mfOTdxJ5jmmJ-44">
          <mxGeometry y="52" width="140" height="26" as="geometry" />
        </mxCell>
        <mxCell id="bao-scZ2mfOTdxJ5jmmJ-47" value="" style="edgeStyle=orthogonalEdgeStyle;rounded=0;orthogonalLoop=1;jettySize=auto;html=1;entryX=0;entryY=0.5;entryDx=0;entryDy=0;exitX=1;exitY=0.5;exitDx=0;exitDy=0;" edge="1" parent="1" source="bao-scZ2mfOTdxJ5jmmJ-14" target="bao-scZ2mfOTdxJ5jmmJ-46">
          <mxGeometry relative="1" as="geometry" />
        </mxCell>
        <mxCell id="bao-scZ2mfOTdxJ5jmmJ-48" value="character_id" style="text;html=1;align=center;verticalAlign=middle;resizable=0;points=[];autosize=1;strokeColor=none;fillColor=none;" vertex="1" parent="1">
          <mxGeometry x="175" y="524" width="90" height="30" as="geometry" />
        </mxCell>
        <mxCell id="bao-scZ2mfOTdxJ5jmmJ-49" value="droprate" style="swimlane;fontStyle=0;childLayout=stackLayout;horizontal=1;startSize=26;fillColor=none;horizontalStack=0;resizeParent=1;resizeParentMax=0;resizeLast=0;collapsible=1;marginBottom=0;whiteSpace=wrap;html=1;" vertex="1" parent="1">
          <mxGeometry x="220" y="620" width="140" height="78" as="geometry" />
        </mxCell>
        <mxCell id="bao-scZ2mfOTdxJ5jmmJ-50" value="id: INT PK" style="text;strokeColor=none;fillColor=none;align=left;verticalAlign=top;spacingLeft=4;spacingRight=4;overflow=hidden;rotatable=0;points=[[0,0.5],[1,0.5]];portConstraint=eastwest;whiteSpace=wrap;html=1;" vertex="1" parent="bao-scZ2mfOTdxJ5jmmJ-49">
          <mxGeometry y="26" width="140" height="26" as="geometry" />
        </mxCell>
        <mxCell id="bao-scZ2mfOTdxJ5jmmJ-51" value="name: STRING" style="text;strokeColor=none;fillColor=none;align=left;verticalAlign=top;spacingLeft=4;spacingRight=4;overflow=hidden;rotatable=0;points=[[0,0.5],[1,0.5]];portConstraint=eastwest;whiteSpace=wrap;html=1;" vertex="1" parent="bao-scZ2mfOTdxJ5jmmJ-49">
          <mxGeometry y="52" width="140" height="26" as="geometry" />
        </mxCell>
        <mxCell id="bao-scZ2mfOTdxJ5jmmJ-52" value="" style="edgeStyle=orthogonalEdgeStyle;rounded=0;orthogonalLoop=1;jettySize=auto;html=1;" edge="1" parent="1" source="bao-scZ2mfOTdxJ5jmmJ-18" target="bao-scZ2mfOTdxJ5jmmJ-50">
          <mxGeometry relative="1" as="geometry" />
        </mxCell>
        <mxCell id="bao-scZ2mfOTdxJ5jmmJ-53" value="droprate_id" style="text;html=1;align=center;verticalAlign=middle;resizable=0;points=[];autosize=1;strokeColor=none;fillColor=none;" vertex="1" parent="1">
          <mxGeometry x="120" y="630" width="80" height="30" as="geometry" />
        </mxCell>
        <mxCell id="bao-scZ2mfOTdxJ5jmmJ-54" value="rarity" style="swimlane;fontStyle=0;childLayout=stackLayout;horizontal=1;startSize=26;fillColor=none;horizontalStack=0;resizeParent=1;resizeParentMax=0;resizeLast=0;collapsible=1;marginBottom=0;whiteSpace=wrap;html=1;" vertex="1" parent="1">
          <mxGeometry x="190" y="730" width="140" height="78" as="geometry" />
        </mxCell>
        <mxCell id="bao-scZ2mfOTdxJ5jmmJ-55" value="id: INT PK" style="text;strokeColor=none;fillColor=none;align=left;verticalAlign=top;spacingLeft=4;spacingRight=4;overflow=hidden;rotatable=0;points=[[0,0.5],[1,0.5]];portConstraint=eastwest;whiteSpace=wrap;html=1;" vertex="1" parent="bao-scZ2mfOTdxJ5jmmJ-54">
          <mxGeometry y="26" width="140" height="26" as="geometry" />
        </mxCell>
        <mxCell id="bao-scZ2mfOTdxJ5jmmJ-56" value="name: STRING" style="text;strokeColor=none;fillColor=none;align=left;verticalAlign=top;spacingLeft=4;spacingRight=4;overflow=hidden;rotatable=0;points=[[0,0.5],[1,0.5]];portConstraint=eastwest;whiteSpace=wrap;html=1;" vertex="1" parent="bao-scZ2mfOTdxJ5jmmJ-54">
          <mxGeometry y="52" width="140" height="26" as="geometry" />
        </mxCell>
        <mxCell id="bao-scZ2mfOTdxJ5jmmJ-57" value="" style="edgeStyle=orthogonalEdgeStyle;rounded=0;orthogonalLoop=1;jettySize=auto;html=1;exitX=0.521;exitY=1.038;exitDx=0;exitDy=0;exitPerimeter=0;entryX=0;entryY=0.5;entryDx=0;entryDy=0;" edge="1" parent="1" source="bao-scZ2mfOTdxJ5jmmJ-18" target="bao-scZ2mfOTdxJ5jmmJ-55">
          <mxGeometry relative="1" as="geometry">
            <mxPoint x="-70" y="620" as="sourcePoint" />
            <mxPoint x="240" y="632" as="targetPoint" />
          </mxGeometry>
        </mxCell>
        <mxCell id="bao-scZ2mfOTdxJ5jmmJ-58" value="rarity_id" style="text;html=1;align=center;verticalAlign=middle;resizable=0;points=[];autosize=1;strokeColor=none;fillColor=none;" vertex="1" parent="1">
          <mxGeometry x="70" y="740" width="70" height="30" as="geometry" />
        </mxCell>
        <mxCell id="bao-scZ2mfOTdxJ5jmmJ-59" value="user" style="swimlane;fontStyle=0;childLayout=stackLayout;horizontal=1;startSize=26;fillColor=none;horizontalStack=0;resizeParent=1;resizeParentMax=0;resizeLast=0;collapsible=1;marginBottom=0;whiteSpace=wrap;html=1;" vertex="1" parent="1">
          <mxGeometry x="-400" y="510" width="140" height="130" as="geometry" />
        </mxCell>
        <mxCell id="bao-scZ2mfOTdxJ5jmmJ-60" value="email: STRING PK" style="text;strokeColor=none;fillColor=none;align=left;verticalAlign=top;spacingLeft=4;spacingRight=4;overflow=hidden;rotatable=0;points=[[0,0.5],[1,0.5]];portConstraint=eastwest;whiteSpace=wrap;html=1;" vertex="1" parent="bao-scZ2mfOTdxJ5jmmJ-59">
          <mxGeometry y="26" width="140" height="26" as="geometry" />
        </mxCell>
        <mxCell id="bao-scZ2mfOTdxJ5jmmJ-61" value="name: STRING" style="text;strokeColor=none;fillColor=none;align=left;verticalAlign=top;spacingLeft=4;spacingRight=4;overflow=hidden;rotatable=0;points=[[0,0.5],[1,0.5]];portConstraint=eastwest;whiteSpace=wrap;html=1;" vertex="1" parent="bao-scZ2mfOTdxJ5jmmJ-59">
          <mxGeometry y="52" width="140" height="26" as="geometry" />
        </mxCell>
        <mxCell id="bao-scZ2mfOTdxJ5jmmJ-62" value="password: STRING" style="text;strokeColor=none;fillColor=none;align=left;verticalAlign=top;spacingLeft=4;spacingRight=4;overflow=hidden;rotatable=0;points=[[0,0.5],[1,0.5]];portConstraint=eastwest;whiteSpace=wrap;html=1;" vertex="1" parent="bao-scZ2mfOTdxJ5jmmJ-59">
          <mxGeometry y="78" width="140" height="26" as="geometry" />
        </mxCell>
        <mxCell id="bao-scZ2mfOTdxJ5jmmJ-63" value="profile_image: STRING" style="text;strokeColor=none;fillColor=none;align=left;verticalAlign=top;spacingLeft=4;spacingRight=4;overflow=hidden;rotatable=0;points=[[0,0.5],[1,0.5]];portConstraint=eastwest;whiteSpace=wrap;html=1;" vertex="1" parent="bao-scZ2mfOTdxJ5jmmJ-59">
          <mxGeometry y="104" width="140" height="26" as="geometry" />
        </mxCell>
        <mxCell id="bao-scZ2mfOTdxJ5jmmJ-64" value="collection" style="swimlane;fontStyle=0;childLayout=stackLayout;horizontal=1;startSize=26;fillColor=none;horizontalStack=0;resizeParent=1;resizeParentMax=0;resizeLast=0;collapsible=1;marginBottom=0;whiteSpace=wrap;html=1;" vertex="1" parent="1">
          <mxGeometry x="-250" y="350" width="140" height="104" as="geometry" />
        </mxCell>
        <mxCell id="bao-scZ2mfOTdxJ5jmmJ-65" value="id_card: INT PK" style="text;strokeColor=none;fillColor=none;align=left;verticalAlign=top;spacingLeft=4;spacingRight=4;overflow=hidden;rotatable=0;points=[[0,0.5],[1,0.5]];portConstraint=eastwest;whiteSpace=wrap;html=1;" vertex="1" parent="bao-scZ2mfOTdxJ5jmmJ-64">
          <mxGeometry y="26" width="140" height="26" as="geometry" />
        </mxCell>
        <mxCell id="bao-scZ2mfOTdxJ5jmmJ-66" value="id_user: INT PK" style="text;strokeColor=none;fillColor=none;align=left;verticalAlign=top;spacingLeft=4;spacingRight=4;overflow=hidden;rotatable=0;points=[[0,0.5],[1,0.5]];portConstraint=eastwest;whiteSpace=wrap;html=1;" vertex="1" parent="bao-scZ2mfOTdxJ5jmmJ-64">
          <mxGeometry y="52" width="140" height="26" as="geometry" />
        </mxCell>
        <mxCell id="bao-scZ2mfOTdxJ5jmmJ-67" value="quantity: INT" style="text;strokeColor=none;fillColor=none;align=left;verticalAlign=top;spacingLeft=4;spacingRight=4;overflow=hidden;rotatable=0;points=[[0,0.5],[1,0.5]];portConstraint=eastwest;whiteSpace=wrap;html=1;" vertex="1" parent="bao-scZ2mfOTdxJ5jmmJ-64">
          <mxGeometry y="78" width="140" height="26" as="geometry" />
        </mxCell>
        <mxCell id="bao-scZ2mfOTdxJ5jmmJ-71" value="" style="endArrow=none;html=1;rounded=0;exitX=1.002;exitY=0.286;exitDx=0;exitDy=0;entryX=0.004;entryY=0.353;entryDx=0;entryDy=0;exitPerimeter=0;entryPerimeter=0;" edge="1" parent="1" source="bao-scZ2mfOTdxJ5jmmJ-61" target="bao-scZ2mfOTdxJ5jmmJ-14">
          <mxGeometry width="50" height="50" relative="1" as="geometry">
            <mxPoint x="-30" y="680" as="sourcePoint" />
            <mxPoint x="20" y="630" as="targetPoint" />
          </mxGeometry>
        </mxCell>
        <mxCell id="bao-scZ2mfOTdxJ5jmmJ-72" value="" style="endArrow=classic;html=1;rounded=0;entryX=0.486;entryY=0.923;entryDx=0;entryDy=0;entryPerimeter=0;" edge="1" parent="1" target="bao-scZ2mfOTdxJ5jmmJ-67">
          <mxGeometry width="50" height="50" relative="1" as="geometry">
            <mxPoint x="-180" y="570" as="sourcePoint" />
            <mxPoint x="20" y="630" as="targetPoint" />
          </mxGeometry>
        </mxCell>
        <mxCell id="bao-scZ2mfOTdxJ5jmmJ-73" value="tier" style="swimlane;fontStyle=0;childLayout=stackLayout;horizontal=1;startSize=26;fillColor=none;horizontalStack=0;resizeParent=1;resizeParentMax=0;resizeLast=0;collapsible=1;marginBottom=0;whiteSpace=wrap;html=1;" vertex="1" parent="1">
          <mxGeometry x="-510" y="350" width="140" height="78" as="geometry" />
        </mxCell>
        <mxCell id="bao-scZ2mfOTdxJ5jmmJ-74" value="id: INT PK" style="text;strokeColor=none;fillColor=none;align=left;verticalAlign=top;spacingLeft=4;spacingRight=4;overflow=hidden;rotatable=0;points=[[0,0.5],[1,0.5]];portConstraint=eastwest;whiteSpace=wrap;html=1;" vertex="1" parent="bao-scZ2mfOTdxJ5jmmJ-73">
          <mxGeometry y="26" width="140" height="26" as="geometry" />
        </mxCell>
        <mxCell id="bao-scZ2mfOTdxJ5jmmJ-75" value="name: STRING" style="text;strokeColor=none;fillColor=none;align=left;verticalAlign=top;spacingLeft=4;spacingRight=4;overflow=hidden;rotatable=0;points=[[0,0.5],[1,0.5]];portConstraint=eastwest;whiteSpace=wrap;html=1;" vertex="1" parent="bao-scZ2mfOTdxJ5jmmJ-73">
          <mxGeometry y="52" width="140" height="26" as="geometry" />
        </mxCell>
        <mxCell id="bao-scZ2mfOTdxJ5jmmJ-78" value="" style="edgeStyle=orthogonalEdgeStyle;rounded=0;orthogonalLoop=1;jettySize=auto;html=1;entryX=1;entryY=0.5;entryDx=0;entryDy=0;" edge="1" parent="1" source="bao-scZ2mfOTdxJ5jmmJ-65" target="bao-scZ2mfOTdxJ5jmmJ-74">
          <mxGeometry relative="1" as="geometry" />
        </mxCell>
        <mxCell id="bao-scZ2mfOTdxJ5jmmJ-79" value="tier_id" style="text;html=1;align=center;verticalAlign=middle;resizable=0;points=[];autosize=1;strokeColor=none;fillColor=none;" vertex="1" parent="1">
          <mxGeometry x="-345" y="360" width="60" height="30" as="geometry" />
        </mxCell>
      </root>
    </mxGraphModel>
  </diagram>
</mxfile>
